<?xml version="1.0" encoding="utf-8"?>
<!-- Generator: Adobe Illustrator 22.0.0, SVG Export Plug-In . SVG Version: 6.00 Build 0)  -->
<svg version="1.1" id="Layer_1" xmlns="http://www.w3.org/2000/svg" xmlns:xlink="http://www.w3.org/1999/xlink" x="0px" y="0px"
	 viewBox="0 0 209.4 78.1" style="enable-background:new 0 0 209.4 78.1;" xml:space="preserve">
<style type="text/css">
	.st0{fill:url(#SVGID_1_);}
	.st1{fill:url(#SVGID_2_);}
	.st2{fill:url(#SVGID_3_);}
	.st3{fill:url(#SVGID_4_);}
	.st4{fill:#231F20;}
	.st5{fill:url(#SVGID_5_);}
	.st6{fill:url(#SVGID_6_);}
	.st7{fill:#FFFFFF;}
</style>
<g id="Bat_11">
	
		<linearGradient id="SVGID_1_" gradientUnits="userSpaceOnUse" x1="-145.1574" y1="-210.6109" x2="-168.4167" y2="-250.8975" gradientTransform="matrix(0.9771 -0.213 0.213 0.9771 359.521 227.7745)">
		<stop  offset="0" style="stop-color:#7D7B7B"/>
		<stop  offset="1.996088e-02" style="stop-color:#7A7878"/>
		<stop  offset="0.3139" style="stop-color:#555252"/>
		<stop  offset="0.5848" style="stop-color:#393637"/>
		<stop  offset="0.8221" style="stop-color:#292526"/>
		<stop  offset="1" style="stop-color:#231F20"/>
	</linearGradient>
	<path class="st0" d="M208.5,12.4c-0.6-0.1-0.6-0.1-0.6-0.1c-21.8-4.1-19.8,14.8-19,19.5c0.1,0.5-0.3,1-0.9,0.9
		c-16.5-3-16.1,13.2-15.8,17.5c0,0.5-0.4,0.9-0.9,0.8c-15.7-3.7-15.5,11.3-15,16.4c0.1,0.6-0.6,1-1.1,0.7
		c-10.3-6.8-20.6-6.5-28.4-4.5c-8,2.1-13.3,6-13.3,6l-0.3-8.5c0,0,23.4-9.4,31.9-43.1c0.7-3,2.6-5.6,5.2-7.3
		C160.5,4,186.9-9.7,209.1,11C209.8,11.5,209.1,12.5,208.5,12.4z"/>
	
		<linearGradient id="SVGID_2_" gradientUnits="userSpaceOnUse" x1="2745.2986" y1="753.2348" x2="2722.0391" y2="712.9483" gradientTransform="matrix(-0.9855 -0.1697 -0.1697 0.9855 2871.6445 -220.642)">
		<stop  offset="0" style="stop-color:#7D7B7B"/>
		<stop  offset="1.996088e-02" style="stop-color:#7A7878"/>
		<stop  offset="0.3139" style="stop-color:#555252"/>
		<stop  offset="0.5848" style="stop-color:#393637"/>
		<stop  offset="0.8221" style="stop-color:#292526"/>
		<stop  offset="1" style="stop-color:#231F20"/>
	</linearGradient>
	<path class="st1" d="M0.2,15.5c21.3-21.6,48.2-9.1,58.7-2.9c2.7,1.6,4.7,4.1,5.6,7c10,33.3,33.8,41.6,33.8,41.6l0.1,8.5
		c0,0-5.5-3.6-13.6-5.4c-7.9-1.6-18.2-1.5-28.2,5.8c-0.5,0.4-1.2,0-1.1-0.6c0.3-5.1-0.1-20-15.7-15.7c-0.5,0.1-1-0.2-1-0.7
		c0.2-4.3-0.2-20.5-16.5-16.8c-0.5,0.1-1-0.4-0.9-0.8c0.6-4.8,1.7-23.7-19.8-18.7c0,0,0,0-0.6,0.2C0.3,17.2-0.4,16.3,0.2,15.5z"/>
	<g>
		
			<linearGradient id="SVGID_3_" gradientUnits="userSpaceOnUse" x1="131.8372" y1="301.0255" x2="121.9773" y2="283.948" gradientTransform="matrix(1 0 0 1 0 -273)">
			<stop  offset="0" style="stop-color:#7D7B7B"/>
			<stop  offset="1.996088e-02" style="stop-color:#7A7878"/>
			<stop  offset="0.3139" style="stop-color:#555252"/>
			<stop  offset="0.5848" style="stop-color:#393637"/>
			<stop  offset="0.8221" style="stop-color:#292526"/>
			<stop  offset="1" style="stop-color:#231F20"/>
		</linearGradient>
		<path class="st2" d="M114.2,23.1c0,0-0.3-15.6,20.7-13.9c0.8,0.1,1.4,0.7,1.4,1.4c0.1,4.5-0.7,19.2-12.4,20.9L114.2,23.1z"/>
		
			<linearGradient id="SVGID_4_" gradientUnits="userSpaceOnUse" x1="75.727" y1="298.117" x2="89.28" y2="284.5641" gradientTransform="matrix(1 0 0 1 0 -273)">
			<stop  offset="0" style="stop-color:#7D7B7B"/>
			<stop  offset="1.996088e-02" style="stop-color:#7A7878"/>
			<stop  offset="0.3139" style="stop-color:#555252"/>
			<stop  offset="0.5848" style="stop-color:#393637"/>
			<stop  offset="0.8221" style="stop-color:#292526"/>
			<stop  offset="1" style="stop-color:#231F20"/>
		</linearGradient>
		<path class="st3" d="M95.3,23.1c0,0,0.3-15.6-20.7-13.9c-0.8,0.1-1.4,0.7-1.4,1.4c-0.1,4.5,0.7,19.2,12.4,20.9L95.3,23.1z"/>
		<g>
			<path class="st4" d="M96.7,69.2l1.4,0.3c1.4,0.3,2.4,1.5,2,2.6l-1.6,4.7c-0.3,0.9-1.5,1.5-2.7,1.3l0,0c-1.2-0.2-2.1-1.2-2.1-2.1
				l0.2-5C93.9,69.7,95.2,68.9,96.7,69.2z"/>
			<path class="st4" d="M112.8,69.2l-1.4,0.3c-1.4,0.3-2.4,1.5-2,2.6l1.6,4.7c0.3,0.9,1.5,1.5,2.7,1.3l0,0c1.2-0.2,2.1-1.2,2.1-2.1
				l-0.2-5C115.6,69.7,114.3,68.9,112.8,69.2z"/>
			
				<linearGradient id="SVGID_5_" gradientUnits="userSpaceOnUse" x1="115.7374" y1="306.7103" x2="92.969" y2="346.1461" gradientTransform="matrix(1 0 0 1 0 -273)">
				<stop  offset="0" style="stop-color:#7D7B7B"/>
				<stop  offset="1.996088e-02" style="stop-color:#7A7878"/>
				<stop  offset="0.3139" style="stop-color:#555252"/>
				<stop  offset="0.5848" style="stop-color:#393637"/>
				<stop  offset="0.8221" style="stop-color:#292526"/>
				<stop  offset="1" style="stop-color:#231F20"/>
			</linearGradient>
			<path class="st5" d="M99,33.1h11.5c8.8,0,15.6,7.3,14.6,15.6l-1.8,14.4c-0.9,7-7.2,12.3-14.6,12.3h-7.8
				c-7.4,0-13.7-5.3-14.6-12.3l-1.8-14.4C83.4,40.4,90.2,33.1,99,33.1z"/>
			
				<linearGradient id="SVGID_6_" gradientUnits="userSpaceOnUse" x1="104.7274" y1="291.2995" x2="104.7274" y2="338.5576" gradientTransform="matrix(1 0 0 1 0 -273)">
				<stop  offset="0" style="stop-color:#7D7B7B"/>
				<stop  offset="0.237" style="stop-color:#5A5757"/>
				<stop  offset="0.4089" style="stop-color:#454242"/>
				<stop  offset="0.549" style="stop-color:#393636"/>
				<stop  offset="0.8066" style="stop-color:#292526"/>
				<stop  offset="1" style="stop-color:#231F20"/>
			</linearGradient>
			<path class="st6" d="M111.1,65.6H98.3c-9.9,0-17.5-8.2-16.3-17.4l2-16.1c1-7.8,8-13.7,16.3-13.7h8.8c8.3,0,15.3,5.9,16.3,13.7
				l2,16.1C128.6,57.4,121,65.6,111.1,65.6z"/>
			<g>
				<path class="st7" d="M110.5,49.3c-0.4,0.4-0.9,0.7-1.3,1l-0.6,2.8l-1.9-1.8c-0.6,0.2-1.3,0.2-1.9,0.2c-0.6,0-1.2-0.1-1.8-0.2
					l-1.9,1.7l-0.6-2.8c-0.5-0.3-1-0.7-1.5-1c-0.2-0.2-0.2-0.4-0.1-0.6c0.2-0.2,0.4-0.2,0.6-0.1c3.3,2.9,7.1,2.9,10.5,0
					c0.2-0.2,0.4-0.1,0.6,0.1C110.7,48.9,110.6,49.2,110.5,49.3z"/>
			</g>
			<circle class="st7" cx="93.4" cy="42.4" r="2.8"/>
			<circle class="st7" cx="116.1" cy="42.4" r="2.8"/>
		</g>
	</g>
</g>
</svg>
