<?xml version="1.0" encoding="utf-8"?>
<!-- Generator: Adobe Illustrator 22.0.0, SVG Export Plug-In . SVG Version: 6.00 Build 0)  -->
<svg version="1.1" id="Layer_1" xmlns="http://www.w3.org/2000/svg" xmlns:xlink="http://www.w3.org/1999/xlink" x="0px" y="0px"
	 viewBox="0 0 217 82.8" style="enable-background:new 0 0 217 82.8;" xml:space="preserve">
<style type="text/css">
	.st0{fill:url(#SVGID_1_);}
	.st1{fill:url(#SVGID_2_);}
	.st2{fill:url(#SVGID_3_);}
	.st3{fill:url(#SVGID_4_);}
	.st4{fill:#231F20;}
	.st5{fill:url(#SVGID_5_);}
	.st6{fill:url(#SVGID_6_);}
	.st7{fill:#FFFFFF;}
</style>
<g id="Bat_7">
	
		<linearGradient id="SVGID_1_" gradientUnits="userSpaceOnUse" x1="2270.3887" y1="-182.9724" x2="2248.47" y2="-220.9368" gradientTransform="matrix(-0.9087 0.4175 0.4175 0.9087 2190.6011 -700.8099)">
		<stop  offset="0" style="stop-color:#7D7B7B"/>
		<stop  offset="1.996088e-02" style="stop-color:#7A7878"/>
		<stop  offset="0.3139" style="stop-color:#555252"/>
		<stop  offset="0.5848" style="stop-color:#393637"/>
		<stop  offset="0.8221" style="stop-color:#292526"/>
		<stop  offset="1" style="stop-color:#231F20"/>
	</linearGradient>
	<path class="st0" d="M0,69.7c5-28.1,32.6-32.8,44.1-33.5c2.9-0.2,5.8,0.7,8.1,2.5c25.5,20.5,48.4,14.4,48.4,14.4l4.6,6.6
		c0,0-6.2,0.1-13.4,3.1c-7,2.9-14.9,8.5-18.8,19.5c-0.2,0.6-0.9,0.6-1.2,0.1c-2.4-4.1-10.8-15.5-20.5-3.8c-0.3,0.4-0.9,0.3-1.1,0
		c-2.2-3.5-11.1-15.8-21.8-4.2c-0.3,0.4-1,0.2-1.1-0.2C25.2,70.1,16,54.8,1.9,70.3c0,0,0,0-0.4,0.4C1,70.9-0.1,70.6,0,69.7z"/>
	
		<linearGradient id="SVGID_2_" gradientUnits="userSpaceOnUse" x1="7.5622" y1="856.0908" x2="-14.4506" y2="817.9634" gradientTransform="matrix(0.9087 0.4175 -0.4175 0.9087 516.2483 -700.8099)">
		<stop  offset="0" style="stop-color:#7D7B7B"/>
		<stop  offset="1.996088e-02" style="stop-color:#7A7878"/>
		<stop  offset="0.3139" style="stop-color:#555252"/>
		<stop  offset="0.5848" style="stop-color:#393637"/>
		<stop  offset="0.8221" style="stop-color:#292526"/>
		<stop  offset="1" style="stop-color:#231F20"/>
	</linearGradient>
	<path class="st1" d="M215.7,70c-0.4-0.4-0.4-0.4-0.4-0.4c-14.1-15.5-23.4-0.1-25.5,4c-0.2,0.4-0.8,0.5-1.1,0.2
		c-10.8-11.6-19.7,0.8-21.9,4.3c-0.2,0.4-0.8,0.4-1.2,0c-9.8-11.7-18.2-0.3-20.6,3.8c-0.3,0.5-1.1,0.4-1.2-0.1
		c-3.9-11-11.9-16.7-18.9-19.6c-7.2-3-13.5-3.1-13.5-3.1l4.6-6.6c0,0,23,6.2,48.6-14.4c2.3-1.9,5.2-2.7,8.1-2.5
		c11.5,0.7,39.2,5.4,44.3,33.7C217.1,70,216.1,70.4,215.7,70z"/>
	<g>
		
			<linearGradient id="SVGID_3_" gradientUnits="userSpaceOnUse" x1="135.1228" y1="291.987" x2="125.263" y2="274.9094" gradientTransform="matrix(1 0 0 1 0 -273)">
			<stop  offset="0" style="stop-color:#7D7B7B"/>
			<stop  offset="1.996088e-02" style="stop-color:#7A7878"/>
			<stop  offset="0.3139" style="stop-color:#555252"/>
			<stop  offset="0.5848" style="stop-color:#393637"/>
			<stop  offset="0.8221" style="stop-color:#292526"/>
			<stop  offset="1" style="stop-color:#231F20"/>
		</linearGradient>
		<path class="st2" d="M117.5,14c0,0-0.3-15.6,20.7-13.9c0.8,0.1,1.4,0.7,1.4,1.4c0.1,4.5-0.7,19.2-12.4,20.9L117.5,14z"/>
		
			<linearGradient id="SVGID_4_" gradientUnits="userSpaceOnUse" x1="79.0656" y1="289.1079" x2="92.6183" y2="275.555" gradientTransform="matrix(1 0 0 1 0 -273)">
			<stop  offset="0" style="stop-color:#7D7B7B"/>
			<stop  offset="1.996088e-02" style="stop-color:#7A7878"/>
			<stop  offset="0.3139" style="stop-color:#555252"/>
			<stop  offset="0.5848" style="stop-color:#393637"/>
			<stop  offset="0.8221" style="stop-color:#292526"/>
			<stop  offset="1" style="stop-color:#231F20"/>
		</linearGradient>
		<path class="st3" d="M98.7,14C98.7,14,99-1.6,78,0.1c-0.8,0.1-1.4,0.7-1.4,1.4C76.5,6,77.3,20.7,89,22.4L98.7,14z"/>
		<g>
			<path class="st4" d="M100,60.1l1.4,0.3c1.4,0.3,2.4,1.5,2,2.6l-1.6,4.7c-0.3,0.9-1.5,1.5-2.7,1.3l0,0c-1.2-0.2-2.1-1.2-2.1-2.1
				l0.2-5C97.2,60.6,98.5,59.8,100,60.1z"/>
			<path class="st4" d="M116.2,60.1l-1.4,0.3c-1.4,0.3-2.4,1.5-2,2.6l1.6,4.7c0.3,0.9,1.5,1.5,2.7,1.3l0,0c1.2-0.2,2.1-1.2,2.1-2.1
				l-0.2-5C118.9,60.6,117.6,59.8,116.2,60.1z"/>
			
				<linearGradient id="SVGID_5_" gradientUnits="userSpaceOnUse" x1="119.0164" y1="297.6605" x2="96.2482" y2="337.0964" gradientTransform="matrix(1 0 0 1 0 -273)">
				<stop  offset="0" style="stop-color:#7D7B7B"/>
				<stop  offset="1.996088e-02" style="stop-color:#7A7878"/>
				<stop  offset="0.3139" style="stop-color:#555252"/>
				<stop  offset="0.5848" style="stop-color:#393637"/>
				<stop  offset="0.8221" style="stop-color:#292526"/>
				<stop  offset="1" style="stop-color:#231F20"/>
			</linearGradient>
			<path class="st5" d="M102.3,24h11.5c8.8,0,15.6,7.3,14.6,15.6L126.6,54c-0.9,7-7.2,12.3-14.6,12.3h-7.8
				c-7.4,0-13.7-5.3-14.6-12.3l-1.8-14.4C86.7,31.3,93.5,24,102.3,24z"/>
			
				<linearGradient id="SVGID_6_" gradientUnits="userSpaceOnUse" x1="108.1057" y1="282.2498" x2="108.1057" y2="329.5079" gradientTransform="matrix(1 0 0 1 0 -273)">
				<stop  offset="0" style="stop-color:#7D7B7B"/>
				<stop  offset="0.237" style="stop-color:#5A5757"/>
				<stop  offset="0.4089" style="stop-color:#454242"/>
				<stop  offset="0.549" style="stop-color:#393636"/>
				<stop  offset="0.8066" style="stop-color:#292526"/>
				<stop  offset="1" style="stop-color:#231F20"/>
			</linearGradient>
			<path class="st6" d="M114.5,56.5h-12.8c-9.9,0-17.5-8.2-16.3-17.4l2-16.1c1-7.8,8-13.7,16.3-13.7h8.8c8.3,0,15.3,5.9,16.3,13.7
				l2,16.1C132,48.3,124.3,56.5,114.5,56.5z"/>
			<g>
				<path class="st7" d="M113.8,40.2c-0.4,0.4-0.9,0.7-1.3,1l-0.6,2.8l-1.9-1.8c-0.6,0.2-1.3,0.2-1.9,0.2s-1.2-0.1-1.8-0.2l-1.9,1.7
					l-0.6-2.8c-0.5-0.3-1-0.7-1.5-1c-0.2-0.2-0.2-0.4-0.1-0.6c0.2-0.2,0.4-0.2,0.6-0.1c3.3,2.9,7.1,2.9,10.5,0
					c0.2-0.2,0.4-0.1,0.6,0.1C114,39.8,114,40.1,113.8,40.2z"/>
			</g>
			<circle class="st7" cx="96.7" cy="33.3" r="2.8"/>
			<circle class="st7" cx="119.4" cy="33.3" r="2.8"/>
		</g>
	</g>
</g>
</svg>
