<?xml version="1.0" encoding="utf-8"?>
<!-- Generator: Adobe Illustrator 22.0.0, SVG Export Plug-In . SVG Version: 6.00 Build 0)  -->
<svg version="1.1" id="Layer_1" xmlns="http://www.w3.org/2000/svg" xmlns:xlink="http://www.w3.org/1999/xlink" x="0px" y="0px"
	 viewBox="0 0 41.7 83.8" style="enable-background:new 0 0 41.7 83.8;" xml:space="preserve">
<style type="text/css">
	.st0{fill:#F9B332;}
	.st1{fill:#F18B22;}
	.st2{fill:#3C3C3C;}
	.st3{opacity:0.5;fill:#D2D3D5;}
	.st4{opacity:0.4;fill:#F18B22;}
</style>
<g>
	<path class="st0" d="M41.7,73.8C40.6,62.3,27,40.2,17.5,41.1l0,0l0,0l0,0c0,0,0,0,0,0C8.1,42-1,66.4,0.1,77.9c0.3,3,7,7.1,21.6,5.6
		l0,0c0,0,0,0,0,0l0,0l0,0c0,0,0,0,0,0l0,0C36.3,82.1,42,76.7,41.7,73.8z"/>
	<path class="st1" d="M33.2,53.4c3.7,6,6.5,12.8,7,17.6c0.3,2.8-5.1,7.8-18.9,9.1c0,0,0,0,0,0l0,0c0,0,0,0,0,0
		c-13.7,1.3-20-2.5-20.3-5.3c-0.5-4.8,1-12,3.5-18.6c-3.1,7.5-5,16.1-4.4,21.6c0.3,3,7,7.1,21.6,5.6c0,0,0,0,0,0l0,0c0,0,0,0,0,0
		c14.6-1.4,20.4-6.8,20.1-9.7C41.2,68.2,37.7,60.2,33.2,53.4z"/>
	<path class="st2" d="M19.2,58.6c-2.1,0.2-3.9-1.3-4.1-3.4l-5-51.1C9.9,2,11.4,0.2,13.5,0c2.1-0.2,3.9,1.3,4.1,3.4l5,51.1
		C22.8,56.5,21.3,58.4,19.2,58.6z"/>
	<path class="st2" d="M19.5,61.2L19.5,61.2L19.5,61.2C19.5,61.2,19.5,61.2,19.5,61.2c7.5-0.7,12.6-2.5,15.8-4.4
		c-5.1-8.7-12.2-16.3-17.8-15.7l0,0l0,0l0,0c0,0,0,0,0,0c-5.6,0.6-11.1,9.4-14.4,18.9C6.6,61.2,12,61.9,19.5,61.2
		C19.5,61.2,19.5,61.2,19.5,61.2z"/>
	<path class="st3" d="M31.7,51.3c-2.5,1.2-6.6,2.6-12.8,3.2l0,0c-6.3,0.6-10.5,0.1-13.2-0.7c-0.1,0.3-0.3,0.6-0.4,0.9
		c2.8,0.8,7.2,1.4,13.7,0.7l0,0c6.5-0.6,10.7-2.1,13.3-3.4C32.1,51.8,31.9,51.5,31.7,51.3z"/>
	<path class="st3" d="M26.4,45.3c-1.9,0.7-4.6,1.5-8.3,1.8l0,0c-3.7,0.4-6.5,0.2-8.5-0.2c-0.2,0.2-0.3,0.4-0.5,0.7
		c2.1,0.4,5,0.6,9,0.2l0,0c4-0.4,6.8-1.2,8.8-2C26.8,45.7,26.6,45.5,26.4,45.3z"/>
	<g>
		<path class="st4" d="M20.2,68.6c-0.2,0,0.2,6.8,0.8,14.9c0.2,0,0.4,0,0.7-0.1c0,0,0,0,0,0l0,0l0,0c0,0,0,0,0,0
			c0.2,0,0.4,0,0.7-0.1C21.4,75.4,20.4,68.6,20.2,68.6z"/>
		<path class="st4" d="M12.8,83.7c0.4,0,0.8,0.1,1.2,0.1c-0.2-7.2-0.5-12.9-0.7-12.9C13.2,70.9,13,76.6,12.8,83.7z"/>
		<path class="st4" d="M34.5,65.2c-0.2,0.1,1.2,6.3,2.9,13.9c0.4-0.2,0.8-0.5,1.1-0.7C36.5,71.1,34.8,65.2,34.5,65.2z"/>
		<path class="st4" d="M32.3,69.7c-0.2,0,0.4,4.9,1.3,11.2c0.4-0.1,0.7-0.3,1.1-0.4C33.5,74.3,32.5,69.7,32.3,69.7z"/>
		<path class="st4" d="M5.5,68.1c-0.2,0-0.8,6.1-1.5,13.7c0.4,0.2,0.8,0.3,1.3,0.5C5.6,74.5,5.7,68.1,5.5,68.1z"/>
		<path class="st4" d="M16.4,83.8c0.3,0,0.7,0,1.1,0c-0.5-5.5-0.9-9.5-1.1-9.5C16.2,74.3,16.2,78.3,16.4,83.8z"/>
	</g>
</g>
</svg>
