<?xml version="1.0" encoding="utf-8"?>
<!-- Generator: Adobe Illustrator 22.0.0, SVG Export Plug-In . SVG Version: 6.00 Build 0)  -->
<svg version="1.1" id="Layer_1" xmlns="http://www.w3.org/2000/svg" xmlns:xlink="http://www.w3.org/1999/xlink" x="0px" y="0px"
	 viewBox="0 0 57.1 75.3" style="enable-background:new 0 0 57.1 75.3;" xml:space="preserve">
<style type="text/css">
	.st0{fill:#7F5D99;}
	.st1{opacity:0.2;fill:#7F5D99;}
	.st2{opacity:0.6;fill:#7F5D99;}
	.st3{fill:#A37AB5;}
	.st4{opacity:0.5;fill:#7F5D99;}
	.st5{fill:#F9B332;}
	.st6{fill:#ED8222;}
	.st7{fill:#323333;}
	.st8{opacity:0.2;fill:#3C3C3C;}
</style>
<g>
	<g>
		<path class="st0" d="M18.1,10.4c-9.1,0-16.4,3.4-16.4,7.6v45.4c0,4.2,7.3,7.6,16.4,7.6c9.1,0,16.4-3.4,16.4-7.6V18.1
			C34.5,13.8,27.1,10.4,18.1,10.4z"/>
		<path class="st1" d="M22.7,10.7c0.3,0.5,0.4,1.1,0.4,1.7v45.4c0,4.2-7.3,7.6-16.4,7.6c-1.6,0-3.2-0.1-4.7-0.3c1.6,3.4,8.2,6,16,6
			c9.1,0,16.4-3.4,16.4-7.6V18.1C34.5,14.6,29.5,11.7,22.7,10.7z"/>
		<path class="st2" d="M5.8,64c-1.3,0-2.3-1-2.3-2.3V25.1c0-1.3,1-2.3,2.3-2.3c1.3,0,2.3,1,2.3,2.3v36.6C8.1,63,7.1,64,5.8,64z"/>
		<path class="st2" d="M34.5,18.9H2.8c0,2.1,0,8.3-1.1,13.4v5.6c0.9,1.6,2.5,1.4,3-2.1c0.8-5.5,2.6-4.7,6.4-5.7c3.8-1,4-2.4,9.1-1.1
			c5.2,1.3,3.2,7.8,4.3,10.3c1.1,2.5,4.2,3,4.1-3c-0.1-6.1-0.5-8.7,1.9-9.5c1.4-0.5,2.9-2.2,3.9-4.1V18.9z"/>
		<path class="st3" d="M1.7,17.8c0,2.2,0,9.1-1.4,14.4c-1.4,5.3,2.5,8.1,3.3,2.6c0.8-5.5,2.6-4.7,6.4-5.7c3.8-1,4-2.4,9.1-1.1
			c5.2,1.3,3.2,7.8,4.3,10.3c1.1,2.5,4.2,3,4.1-3c-0.1-6.1-0.5-8.7,1.9-9.5c2.4-0.9,5-5.2,5-7.9H1.7z"/>
		<path class="st3" d="M34.5,18.1c0,4.2-7.3,7.6-16.4,7.6c-9.1,0-16.4-3.4-16.4-7.6c0-4.2,7.3-7.6,16.4-7.6
			C27.1,10.4,34.5,13.8,34.5,18.1z"/>
		<path class="st2" d="M30.8,18.1c0,3.3-5.7,6-12.8,6c-7.1,0-12.8-2.7-12.8-6c0-3.3,5.7-6,12.8-6C25.1,12.1,30.8,14.8,30.8,18.1z"/>
		<path class="st4" d="M18.1,15.5c-5.8,0-10.7,1.8-12.2,4.3c1.6,2.5,6.5,4.3,12.2,4.3c5.8,0,10.7-1.8,12.2-4.3
			C28.7,17.3,23.9,15.5,18.1,15.5z"/>
		<path class="st5" d="M24.4,11.9c-0.6,3.1-3.4,4.3-6.5,3.8c-3.1-0.5-5.3-2.6-4.8-5.7c0.6-3.1,4.4-10.4,7.6-9.9
			C23.8,0.6,24.9,8.8,24.4,11.9z"/>
		<path class="st6" d="M22.4,12.3c-0.4,2.1-2.2,2.9-4.3,2.5c-2.1-0.4-3.6-1.8-3.2-3.8c0.4-2.1,3-7,5.1-6.6
			C22,4.7,22.8,10.3,22.4,12.3z"/>
		<g>
			<path class="st7" d="M18.1,21.3c-0.3,0-0.5-0.2-0.5-0.4c-0.1-0.3-2.1-7.9,0.9-13.3c0.1-0.3,0.5-0.4,0.8-0.2
				c0.3,0.1,0.4,0.5,0.2,0.8c-2.7,4.9-0.8,12.4-0.8,12.4c0.1,0.3-0.1,0.6-0.4,0.7C18.2,21.3,18.1,21.3,18.1,21.3z"/>
		</g>
	</g>
	<path class="st8" d="M34.5,63.4V29.3c-3.1,1.1-5.1,2.8-5.1,4.7c0,0-1.3,11.2-0.8,14.7c0.1,0.9,0.4,1.5,0.8,1.8v18.4
		C32.5,67.5,34.5,65.6,34.5,63.4z"/>
	<g>
		<path class="st0" d="M44.3,28.1c-7,0-12.8,2.7-12.8,5.9v35.3c0,3.3,5.7,6,12.8,6c7.1,0,12.8-2.7,12.8-6V34.1
			C57.1,30.8,51.3,28.1,44.3,28.1z"/>
		<path class="st1" d="M47.9,28.4c0.2,0.4,0.3,0.8,0.3,1.3V65c0,3.3-5.7,6-12.8,6c-1.3,0-2.5-0.1-3.6-0.2c1.3,2.7,6.4,4.7,12.5,4.7
			c7.1,0,12.8-2.7,12.8-6V34.1C57.1,31.4,53.2,29.1,47.9,28.4z"/>
		<path class="st2" d="M57.1,34.9H32.4c0,0-0.6,5.6-0.8,10.1v4.2c0,0.1,0,0.3,0,0.4c0.5,3.4,3.4,2.3,3.1-1.1
			c-0.3-3.4,2.4-3.7,3.2-1.5c0.7,2.1,2.8,1.9,2.7-1.2c-0.1-3.1,1.2-2.9,2.8-2.8c1.5,0.1,5.7,0,7.3-0.7c1.6-0.6,3.7-1.6,3.8,0.1
			c0.1,1.7-0.2,4.4,1,4.7c1.2,0.3,1.3-2.9,0.8-5.5c-0.3-1.5,0.3-2.8,0.9-4V34.9z"/>
		<path class="st2" d="M34.8,69.8c-1,0-1.8-0.8-1.8-1.8V39.6c0-1,0.8-1.8,1.8-1.8c1,0,1.8,0.8,1.8,1.8v28.5
			C36.5,69,35.7,69.8,34.8,69.8z"/>
		<path class="st3" d="M31.5,34.1c0,0-1.3,11.2-0.8,14.7c0.5,3.4,3.4,2.3,3.1-1.1c-0.3-3.4,2.4-3.7,3.2-1.5c0.7,2.1,2.8,1.9,2.7-1.2
			c-0.1-3.1,1.2-2.9,2.8-2.8c1.5,0.1,5.7,0,7.3-0.7c1.6-0.6,3.7-1.6,3.8,0.1c0.1,1.7-0.2,4.4,1,4.7c1.2,0.3,1.3-2.9,0.8-5.5
			c-0.6-2.6,1.7-4.5,1.7-6.7H31.5z"/>
		<path class="st3" d="M57.1,34.1c0,3.3-5.7,6-12.8,6c-7,0-12.8-2.7-12.8-6c0-3.3,5.7-5.9,12.8-5.9C51.3,28.1,57.1,30.8,57.1,34.1z"
			/>
		<path class="st2" d="M54.2,34.1c0,2.6-4.5,4.6-10,4.6c-5.5,0-9.9-2.1-9.9-4.6c0-2.6,4.5-4.6,9.9-4.6
			C49.8,29.4,54.2,31.5,54.2,34.1z"/>
		<path class="st4" d="M44.3,32.1c-4.5,0-8.3,1.4-9.5,3.3c1.2,1.9,5,3.3,9.5,3.3c4.5,0,8.3-1.4,9.5-3.3
			C52.6,33.5,48.8,32.1,44.3,32.1z"/>
		<path class="st5" d="M49.2,29.3c-0.4,2.4-2.6,3.4-5,2.9c-2.4-0.4-4.2-2.1-3.7-4.5c0.4-2.4,3.5-8.1,5.9-7.7
			C48.7,20.5,49.6,26.9,49.2,29.3z"/>
		<path class="st6" d="M47.7,29.6c-0.3,1.6-1.8,2.2-3.4,2c-1.6-0.3-2.8-1.4-2.5-3c0.3-1.6,2.3-5.4,3.9-5.2
			C47.4,23.7,48,28,47.7,29.6z"/>
		<g>
			<path class="st7" d="M44.3,36.6c-0.2,0-0.4-0.1-0.4-0.3c-0.1-0.2-1.6-6.2,0.7-10.3c0.1-0.2,0.4-0.3,0.6-0.2
				c0.2,0.1,0.3,0.4,0.2,0.6c-2.1,3.8-0.6,9.6-0.6,9.7c0.1,0.2-0.1,0.5-0.3,0.5C44.4,36.6,44.3,36.6,44.3,36.6z"/>
		</g>
	</g>
</g>
</svg>
