<?xml version="1.0" encoding="utf-8"?>
<!-- Generator: Adobe Illustrator 22.0.0, SVG Export Plug-In . SVG Version: 6.00 Build 0)  -->
<svg version="1.1" id="Layer_1" xmlns="http://www.w3.org/2000/svg" xmlns:xlink="http://www.w3.org/1999/xlink" x="0px" y="0px"
	 viewBox="0 0 34.7 67.1" style="enable-background:new 0 0 34.7 67.1;" xml:space="preserve">
<style type="text/css">
	.st0{fill:#FB8C00;}
	.st1{clip-path:url(#SVGID_2_);}
	.st2{fill:#3C3C3C;}
	.st3{opacity:0.2;}
	.st4{fill:#F18200;}
</style>
<g>
	<path class="st0" d="M17.2,67c2.6,0.7,5.3-0.9,5.9-3.5l11-42C36.6,12.4,31.1,3,21.9,0.6C12.8-1.8,3.4,3.7,1,12.8L0.2,16
		C-0.5,18.6,1,21.3,3.6,22c2.6,0.7,5.3-0.9,5.9-3.5l0.8-3.2c1-4,5.1-6.3,9-5.3c4,1,6.3,5.1,5.3,9.1l-11,42
		C13.1,63.6,14.6,66.3,17.2,67z"/>
	<g>
		<defs>
			<path id="SVGID_1_" d="M17.2,67c2.6,0.7,5.3-0.9,5.9-3.5l11-42C36.6,12.4,31.1,3,21.9,0.6C12.8-1.8,3.4,3.7,1,12.8L0.2,16
				C-0.5,18.6,1,21.3,3.6,22c2.6,0.7,5.3-0.9,5.9-3.5l0.8-3.2c1-4,5.1-6.3,9-5.3c4,1,6.3,5.1,5.3,9.1l-11,42
				C13.1,63.6,14.6,66.3,17.2,67z"/>
		</defs>
		<clipPath id="SVGID_2_">
			<use xlink:href="#SVGID_1_"  style="overflow:visible;"/>
		</clipPath>
		<g class="st1">
			<polygon class="st2" points="-24.8,16 -28.8,9.2 35,-28.2 39,-21.3 			"/>
			<polygon class="st2" points="-17.1,30.4 -21.3,23.2 42.8,-14.3 46.9,-7.1 			"/>
			<polygon class="st2" points="-9.3,43.8 -13.3,36.9 50.4,-0.3 54.3,6.7 			"/>
			<polygon class="st2" points="-1.2,57.5 -5.3,50.7 58.9,13.2 62.8,20.1 			"/>
			
				<rect x="-0.2" y="45" transform="matrix(0.8633 -0.5048 0.5048 0.8633 -19.7527 25.4255)" class="st2" width="74.6" height="8.3"/>
			
				<rect x="8.4" y="58.7" transform="matrix(0.8632 -0.5049 0.5049 0.8632 -25.4836 31.3476)" class="st2" width="73.4" height="8"/>
		</g>
	</g>
	<g class="st3">
		<path class="st4" d="M2.5,21.5c0.3,0.2,0.7,0.3,1.1,0.4c2.6,0.7,5.3-0.9,5.9-3.5l0.8-3.2c0.9-3.6,4.3-5.8,7.9-5.5
			c-0.4-0.2-0.7-0.3-1.1-0.4c-4-1-8,1.3-9,5.3l-0.8,3.2C6.7,20.1,4.7,21.5,2.5,21.5z"/>
		<path class="st4" d="M21.9,0.6c-0.4-0.1-0.8-0.2-1.1-0.2c8.5,2.8,13.4,11.8,11.1,20.6l-11,42c-0.6,2.2-2.6,3.7-4.8,3.6
			c0.3,0.2,0.7,0.3,1.1,0.4c2.6,0.7,5.3-0.9,5.9-3.5l11-42C36.6,12.4,31.1,3,21.9,0.6z"/>
	</g>
</g>
</svg>
