<?xml version="1.0" encoding="utf-8"?>
<!-- Generator: Adobe Illustrator 22.0.0, SVG Export Plug-In . SVG Version: 6.00 Build 0)  -->
<svg version="1.1" id="Layer_1" xmlns="http://www.w3.org/2000/svg" xmlns:xlink="http://www.w3.org/1999/xlink" x="0px" y="0px"
	 viewBox="0 0 61.8 74.8" style="enable-background:new 0 0 61.8 74.8;" xml:space="preserve">
<style type="text/css">
	.st0{fill:#323333;}
	.st1{fill:#545554;}
	.st2{fill:#1B1C1B;}
	.st3{fill:#3C3C3C;}
	.st4{fill:#F9B332;}
</style>
<g>
	<g>
		<path class="st0" d="M47.5,4.7c-1.9-1.3-18.6-3.6-21.4-1.9C23.4,4.3,7.7,23.2,7.3,26.6c-0.4,3.4,9.9,43,12.6,45.1
			c2.7,2,18.4,3.5,21.4,1.9c3-1.6,20.3-39.1,20.4-42.1C61.9,28.5,49.4,5.9,47.5,4.7z"/>
		<path class="st1" d="M39.8,2.3c0.4,0.1,6.4,1.6,7.8,2.4c1.5,0.9,14.2,23.3,14.2,26.7c0,0-6.3-2.3-7.4-2.4L39.8,2.3z"/>
		<path class="st2" d="M12.5,69.5c0,0,0.7,0.8,5,2.3c11,3.9,22.5,3.7,24.2,1.5c-1.1,0-4.1,0.6-7.8-1.7C31.8,70.2,20,72,12.5,69.5z"
			/>
		<path class="st3" d="M40.2,2.5c-1.9-1.3-18.6-3.6-21.4-1.9C16,2.2,0.4,21.1,0,24.5c-0.4,3.4,9.9,43,12.6,45.1
			c2.7,2,18.4,3.5,21.4,1.9c3-1.6,20.3-39.1,20.4-42.1C54.6,26.4,42.1,3.8,40.2,2.5z"/>
	</g>
	<path class="st0" d="M33.5,23.5c0.4-5.9,0.6-10.2,0.4-10.5c-0.5-0.6-6.8-1.6-8-0.7c-0.4,0.2-0.9,4.4-1.5,10.2
		c-5.4-0.3-9.8-0.1-10.2,0.2c-0.8,0.7-1.3,6.6-0.2,7.1c1.7,0.8,5.4,1.5,9.5,2c-1.1,13.3-2.1,28.6-1.7,29.1c0.8,1.2,7.2,1.6,8,0.2
		c0.3-0.6,1.9-15.4,3-28.4c4.8,0.4,8.7,0.5,9.1,0.2c1-0.6,1.8-6.5,0.3-7.2C39.7,24.8,36.7,24.1,33.5,23.5z"/>
	<path class="st4" d="M20.3,60.9c-0.6-1,2.9-47.9,4.1-48.7c1.2-0.8,7.5,0.1,8,0.7c0.9,1.1-3.5,47.1-4.1,48.2
		C27.4,62.5,21,62.1,20.3,60.9z"/>
	<path class="st4" d="M12.7,22.6c0.8-0.7,18.9-0.8,27.9,3.1c1.5,0.7,0.7,6.6-0.3,7.2c-1,0.6-22.9-1-27.8-3.2
		C11.4,29.2,11.9,23.3,12.7,22.6z"/>
</g>
</svg>
