<?xml version="1.0" encoding="utf-8"?>
<!-- Generator: Adobe Illustrator 22.0.0, SVG Export Plug-In . SVG Version: 6.00 Build 0)  -->
<svg version="1.1" id="Layer_1" xmlns="http://www.w3.org/2000/svg" xmlns:xlink="http://www.w3.org/1999/xlink" x="0px" y="0px"
	 viewBox="0 0 161.7 201" style="enable-background:new 0 0 161.7 201;" xml:space="preserve">
<style type="text/css">
	.st0{fill:#FFFFFF;}
	.st1{fill:#62BD66;}
</style>
<g>
	<rect x="42.6" y="41.4" class="st0" width="95.2" height="53.8"/>
	<g>
		<path class="st1" d="M19.6,139.9c-2.4-3.5-4.3-6.4-6.4-9.6c-0.5,1.7-0.8,3.4-1.4,4.7c-0.5,0.9-1.6,1.4-2.5,2.1
			c-0.5-1-1.5-2.1-1.5-3.1c-0.1-1.8,0.5-3.6,1-6c-2.1,1.2-3.5,2.3-5.1,2.8c-1.1,0.4-2.5,0.1-3.7,0.2c0.5-1.5,0.5-3.8,1.4-4.4
			c1.8-1.1,4.2-1.4,6.5-1.6c2.1-0.1,2.9-0.8,3.3-2.9c2.7-13.6,5-15.4,19-15.7c0.5,0,1.1-0.1,2.1-0.2c0-1.2,0-2.5,0-3.7
			c-0.2-11.8-0.5-23.7-0.6-35.6c-0.1-9.3,0.7-18.5,6-26.6c7.8-12.1,19.5-18.6,33.1-21.7c6.7-1.5,13.7-1.8,20.5-2.6
			c1.2-3.6,2.4-7.5,4-11.2c0.7-1.7,2.1-3.3,3.5-4.5c0.8-0.6,2.3-0.2,3.5-0.3c0.1,1.1,0.5,2.4,0.1,3.4c-0.7,1.6-1.9,3.1-2.8,4.7
			c-0.6,1.1-1.3,2.2-1.4,3.4c-0.1,0.8,0.4,2.1,1.1,2.6c0.3,0.3,1.8-0.2,2.3-0.8c1.4-1.3,2.5-2.9,3.8-4.3c1.8-1.8,3.9-3.6,5.8-5.3
			c0.4,0.3,0.9,0.5,1.3,0.8c-0.5,1.4-0.8,2.9-1.4,4.3c-0.4,0.9-1.6,1.4-1.9,2.3c-0.4,1-0.3,2.1-0.3,3.1c1,0.1,2.5,0.6,3.1,0.1
			c1.7-1.2,3.2-2.8,4.7-4.4c2.8-3.3,5.1-4.3,6.7-2.4c2.3,2.9,0,4.9-1.7,6.7c-2.3,2.3-4.9,4.3-7.3,6.4c5.3,2.9,10.5,5.3,15.4,8.4
			c13.1,8.5,20.8,21.1,25.9,35.5c5.1,14.2,7.3,28.9,5.2,44c-0.1,0.9,0.1,1.8,0.1,2.7c0.1,1.7,1.6,4-1.4,4.7
			c-3.4,0.8-4.8-0.1-5.7-3.4c-0.3-1-0.5-2-0.8-3.1c-1.2,0.1-2.1,0.2-3.1,0.3c0.4,2.1,0.8,3.9,1.2,6.1c-2.1,0-3.7,0-5.5,0
			c0-1.8,0-3.5,0-5.3c-2,0-3.8,0-5.9,0c0.1,1.7,0.2,3.4,0.3,5.3c-1.9,0-3.6,0-5.4,0c-0.3-1.6-0.5-3.2-0.9-4.9c-2,0-3.8,0-6,0
			c0.5,1.7,0.8,3.2,1.2,4.7c-4.9,1.2-4.9,1.2-6.2-4.6c-1.2,0-2.5,0-4,0c0.2,1.6,0.4,3.1,0.5,4.4c-1.7,0.7-3.3,1.4-5.7,2.4
			c-0.7-1.7-1.6-4.1-2.9-7.2c-7.6,0-15.9-0.1-24.2,0c-2.6,0-5.2,0.5-7.8,0.7c-2.3,0.1-3.7,1.6-3.8,3.6c-0.2,3.8-0.4,7.5,0.1,11.2
			c0.6,4.2,8.8,8.2,12.8,6.4c3.1-1.3,3.6-3.1,1.8-6c-0.6-1-1.4-2.1-2.1-3.2c3.5-1.6,4,1.9,5.7,2.9c1.5-1.8,2.7-3.8,4.4-5.3
			c0.8-0.7,2.6-0.3,3.9-0.4c-0.3,1.1-0.3,2.3-1,3.1c-0.8,1.3-1.9,2.4-2.9,3.6c0.1,0.3,0.3,0.7,0.4,1c1.2-0.1,2.4-0.2,3.6-0.5
			c1.5-0.4,2.9-1.2,4.5-1.5c0.8-0.1,1.8,0.5,2.7,0.8c-0.5,0.9-0.9,2-1.6,2.5c-0.8,0.6-1.9,0.6-2.9,1c-1,0.5-2.1,1-3.8,1.9
			c2.3,1.2,4,1.8,5.4,2.9c0.8,0.5,1,1.8,1.4,2.7c-1.1,0.3-2.1,0.7-3.2,1c-0.2,0.1-0.5-0.1-0.6-0.3c-4.6-4.1-8.9-2.7-13.6,0.1
			c-4.1,2.5-8.6,1.2-13.1-0.5c0,1.8,0,3.3,0,4.8c-0.2,11.2-0.5,22.3-0.5,33.5c-0.1,4,0.3,8.1,0.5,12.2c0.1,2.7,1.7,3.4,4.2,3.1
			c2.1-0.3,4.3-0.7,6.4-0.5c1.1,0.1,2.5,1.2,2.9,2.1c0.3,0.6-1,2.5-1.8,2.7c-4.6,1.2-9.2,2.4-13.9,3c-1,0.1-2.5-1.8-3.4-3
			c-0.5-0.8-0.3-2-0.4-3c-0.4-7-1.3-7.7-8.4-6.9c-3.5,0.3-7,0.6-10.5,0.8c-2.7,0.1-4.6,1.3-4.9,4.2c-0.3,2.7,0.9,4.2,3.6,4
			c1.7-0.1,3.4-0.6,5.1-0.8c2.4-0.3,4.3,0.9,4.2,3.3c-0.1,1.1-2,3-3.1,3.1c-5.1,0.2-10.2,0.1-15.3-0.5c-1.2-0.1-2.8-2.9-3-4.6
			c-1.8-17.9-3.4-35.8-4.9-53.7c-0.6-7.4-0.9-14.8-1.3-22.2c-0.2-4.2-3.1-6.8-7.5-6.4c-8.3,0.8-11.5,7.5-6.8,14.4
			c1.7,2.5,3.9,4.9,3,8.3C20.8,137.6,20.4,138.2,19.6,139.9z M117.4,85.3c9.9,0.1,17.7-7.6,17.7-17.5c0.1-9.7-7.8-17.7-17.5-17.7
			c-9.6,0-17.5,7.8-17.5,17.3C100,77.3,107.7,85.2,117.4,85.3z M70.7,85.3c9.4,0.1,17-7.5,17-16.8s-7.7-17-17-16.9
			c-9.2,0.1-16.8,7.6-16.9,16.7C53.7,77.5,61.4,85.2,70.7,85.3z"/>
		<path class="st1" d="M117.6,70.1c0.1,3.7-2.9,6.8-6.6,6.8c-3.5,0-6.5-2.9-6.6-6.5c-0.1-3.8,2.7-6.7,6.6-6.7
			C114.7,63.6,117.5,66.4,117.6,70.1z"/>
		<path class="st1" d="M80.3,63.5c2.9-0.1,5.1,1.8,5.1,4.7c0.1,2.8-2.1,5.1-4.9,5.1c-2.6,0-4.7-2.1-4.9-4.7
			C75.6,65.6,77.5,63.6,80.3,63.5z"/>
	</g>
</g>
</svg>
