<?xml version="1.0" encoding="utf-8"?>
<!-- Generator: Adobe Illustrator 22.0.0, SVG Export Plug-In . SVG Version: 6.00 Build 0)  -->
<svg version="1.1" id="Layer_1" xmlns="http://www.w3.org/2000/svg" xmlns:xlink="http://www.w3.org/1999/xlink" x="0px" y="0px"
	 viewBox="0 0 55.3 65" style="enable-background:new 0 0 55.3 65;" xml:space="preserve">
<style type="text/css">
	.st0{fill:#FFFFFF;}
	.st1{opacity:0.5;fill:#B0B1B4;}
	.st2{fill:#212121;}
	.st3{fill:#D2D3D5;}
</style>
<g>
	<path class="st0" d="M49.9,30.4C49.9,18.1,45,0,27.6,0S5.4,18.1,5.4,30.4C5.4,38-2.8,50.8,1,59.6c1,2.3,2.8-8,5.8-6.4
		c1.9,1,4.2,10,7,10.6c1.9,0.4,4-7.5,6.4-7.3c2.2,0.2,4.7,8.5,7.4,8.5c2.7,0,5.2-8.3,7.4-8.5c2.4-0.2,4.5,7.7,6.4,7.3
		c2.9-0.6,5.2-9.6,7-10.6c3-1.6,4.8,8.7,5.8,6.4C58.1,50.8,49.9,38,49.9,30.4z"/>
	<path class="st1" d="M49.9,30.4c0-10-3.3-23.9-13.9-28.7c8.3,5.7,11,19.7,11,28c0,6.6,7.1,13.6,3.8,21.3c-0.9,2-2.4-6.9-5-5.6
		c-1.6,0.9-3.6,12.2-6.1,12.8c-1.6,0.3-3.5-10.1-5.5-9.9c-1.9,0.2-4.1,10.9-6.5,10.9c-2.4,0-4.5-10.8-6.5-10.9
		c-2.1-0.2-3.9,10.2-5.5,9.9c-2.5-0.5-4.5-11.9-6.1-12.8c-2.6-1.4-4.2,7.6-5,5.6c-3.3-7.6,3.8-14.7,3.8-21.3c0-8.4,2.6-22.3,11-28
		C8.7,6.5,5.4,20.4,5.4,30.4C5.4,38-2.8,50.8,1,59.6c1,2.3,2.8-8,5.8-6.4c1.9,1,4.2,10,7,10.6c1.9,0.4,4-7.5,6.4-7.3
		c2.2,0.2,4.7,8.5,7.4,8.5c2.7,0,5.2-8.3,7.4-8.5c2.4-0.2,4.5,7.7,6.4,7.3c2.9-0.6,5.2-9.6,7-10.6c3-1.6,4.8,8.7,5.8,6.4
		C58.1,50.8,49.9,38,49.9,30.4z"/>
	<path class="st2" d="M41.7,18.9c-0.1-0.7-7.3-8.8-8.1-8.6c-0.7,0.2-0.4,5.9,2.2,8C37.9,20,41.8,20,41.7,18.9z"/>
	<path class="st3" d="M35.5,19.2c-2.2-1.7-2.9-5.6-2.8-7.6c-0.7,0.3-0.4,6,2.2,8c1.7,1.4,4.7,1.6,5.6,1C39.2,20.7,37,20.3,35.5,19.2
		z"/>
	<path class="st2" d="M13.7,17c0.3-0.7,10.2-5.3,10.8-4.8c0.6,0.5-1.9,5.7-5.1,6.6C16.8,19.4,13.2,18,13.7,17z"/>
	<path class="st3" d="M19.1,19.4c-1.8,0.5-4.1,0-5.4-0.6c0.6,0.9,3.4,1.8,5.6,1.2c2.6-0.7,4.7-4.2,5.1-5.8
		C23.5,16.1,21.5,18.7,19.1,19.4z"/>
	<path class="st2" d="M22.9,26.5c0-2.6,2.1-5.4,4.7-5.4c2.6,0,4.7,2.8,4.7,5.4s0.2,10-4.7,10C22.7,36.5,22.9,29.1,22.9,26.5z"/>
	<path class="st3" d="M27.6,37.3c-4.8,0-5.1-6.3-5.1-9.7c0,3-0.1,10.5,5.1,10.5c5.2,0,5.1-7.5,5.1-10.5C32.8,31,32.4,37.3,27.6,37.3
		z"/>
</g>
</svg>
