<?xml version="1.0" encoding="utf-8"?>
<!-- Generator: Adobe Illustrator 22.0.0, SVG Export Plug-In . SVG Version: 6.00 Build 0)  -->
<svg version="1.1" id="Layer_1" xmlns="http://www.w3.org/2000/svg" xmlns:xlink="http://www.w3.org/1999/xlink" x="0px" y="0px"
	 viewBox="0 0 77.7 65.5" style="enable-background:new 0 0 77.7 65.5;" xml:space="preserve">
<style type="text/css">
	.st0{fill:#D2D3D5;}
	.st1{fill:#FFFFFF;}
	.st2{fill:#3C3C3C;}
</style>
<g>
	<g>
		<path class="st0" d="M25.6,55.6L25.6,55.6l14.2-14.2v0c2.2,2.2,5.7,2.2,7.8,0c2.2-2.2,2.2-5.7,0-7.8c-1.1-1.1-2.5-1.6-3.9-1.6
			c0-1.4-0.5-2.8-1.6-3.9c-2.2-2.2-5.7-2.2-7.8,0c-2.2,2.2-2.2,5.7,0,7.8L20.1,50.1c-2.2-2.2-5.7-2.2-7.8,0c-2.2,2.2-2.2,5.7,0,7.8
			c1.1,1.1,2.5,1.6,3.9,1.6c0,1.4,0.5,2.8,1.6,3.9c2.2,2.2,5.7,2.2,7.8,0C27.7,61.2,27.7,57.7,25.6,55.6z"/>
		<g>
			<path class="st0" d="M47.6,33.6c0.8,2,0.4,4.4-1.2,6c-2.2,2.2-5.7,2.2-7.8,0v0L24.4,53.8v0c0.5,0.5,0.9,1.1,1.2,1.8l14.2-14.2v0
				c2.2,2.2,5.7,2.2,7.8,0C49.8,39.2,49.8,35.7,47.6,33.6z"/>
			<path class="st0" d="M24.4,61.7c-2.2,2.2-5.7,2.2-7.8,0c0,0,0,0,0,0c0.3,0.6,0.7,1.3,1.2,1.8c2.2,2.2,5.7,2.2,7.8,0
				c2.2-2.2,2.2-5.6,0-7.8C26.4,57.6,26,60,24.4,61.7z"/>
		</g>
		<path class="st1" d="M40.5,28.4c0,0.7-1.1,1.2-2.5,1.2c-1.4,0-2.5-0.6-2.5-1.2c0-0.7,1.1-1.2,2.5-1.2
			C39.3,27.2,40.5,27.7,40.5,28.4z"/>
		<path class="st1" d="M18.6,50.6c0,0.7-1.1,1.2-2.5,1.2c-1.4,0-2.5-0.6-2.5-1.2c0-0.7,1.1-1.2,2.5-1.2
			C17.5,49.4,18.6,49.9,18.6,50.6z"/>
	</g>
	<g>
		<path class="st0" d="M17.9,39.9L17.9,39.9L6.5,36.3l0,0c-0.6,1.7-2.4,2.7-4.2,2.2c-1.7-0.6-2.7-2.4-2.2-4.2
			c0.3-0.9,0.9-1.5,1.6-1.9c-0.4-0.7-0.5-1.6-0.2-2.5c0.5-1.7,2.4-2.7,4.1-2.2c1.7,0.5,2.7,2.4,2.2,4.2l11.5,3.6
			c0.6-1.7,2.4-2.7,4.2-2.2c1.7,0.6,2.7,2.4,2.2,4.2c-0.3,0.9-0.9,1.5-1.6,1.9c0.4,0.7,0.5,1.6,0.2,2.5c-0.5,1.7-2.4,2.7-4.2,2.2
			C18.3,43.5,17.4,41.7,17.9,39.9z"/>
		<g>
			<path class="st0" d="M0.2,34.3c0.1,1.3,1,2.5,2.3,2.9c1.7,0.5,3.6-0.4,4.2-2.2v0l11.4,3.6l0,0c-0.1,0.4-0.2,0.8-0.1,1.3L6.5,36.3
				l0,0c-0.6,1.7-2.4,2.7-4.2,2.2C0.6,37.9-0.4,36.1,0.2,34.3z"/>
			<path class="st0" d="M20.2,42.8c1.7,0.6,3.6-0.4,4.2-2.2c0,0,0,0,0,0c0,0.4,0,0.9-0.1,1.3c-0.5,1.7-2.4,2.7-4.2,2.2
				c-1.7-0.5-2.7-2.4-2.2-4.1C18,41.3,18.9,42.4,20.2,42.8z"/>
		</g>
		<path class="st1" d="M2.5,29.6c0.2,0.4,0.9,0.3,1.7,0c0.7-0.4,1.2-1,1-1.3c-0.2-0.4-0.9-0.3-1.7,0C2.8,28.6,2.3,29.2,2.5,29.6z"/>
		<path class="st1" d="M20.2,35.4c0.2,0.4,0.9,0.3,1.7,0c0.7-0.4,1.2-1,1-1.3c-0.2-0.4-0.9-0.3-1.7,0C20.5,34.4,20,35,20.2,35.4z"/>
	</g>
	<g>
		<g>
			<path class="st0" d="M33.4,53.5c-2.8,6.1,19.3,16.2,22.1,10.1c2.8-6.1,5.1-19-3-22.7C44.4,37.2,36.2,47.4,33.4,53.5z"/>
			<path class="st0" d="M74.7,47.1c-5.2,11.5-17,12.7-28.5,7.5c-11.5-5.2-18.2-15-13-26.4C38.5,16.7,51,6.6,65.2,13.1
				C79.4,19.6,79.9,35.6,74.7,47.1z"/>
		</g>
		<g>
			<path class="st2" d="M49.7,50.5c-0.9,2-5.6-0.2-4.7-2.2c0.9-2,4.2-4.9,4.9-4.6C50.7,44.1,50.5,48.6,49.7,50.5z"/>
			<path class="st2" d="M51.8,51.5c-0.9,2-5.6-0.2-4.7-2.2c0.9-2,4.2-4.9,4.9-4.6C52.8,45.1,52.7,49.5,51.8,51.5z"/>
		</g>
		<path class="st2" d="M37,35.4c-0.9,3.5,5.8,10.8,13.2,1.4C55.5,30.1,39.1,27.2,37,35.4z"/>
		<path class="st2" d="M66.8,49c-2,2.9-12,2.7-9.7-9C58.7,31.6,71.6,42.1,66.8,49z"/>
		<path class="st0" d="M74.7,47.1c3.3-7.3,4.3-16.5,0.9-23.9c1.9,6.7,0.8,14.4-2.1,20.7c-3.5,7.7-10,10.7-17.3,10.4
			c-0.5,2.3-1.2,4.4-2,6.1c-0.7,1.5-2.4,2-4.7,1.9c0.3-1.2,0.6-2.4,0.4-2.5c-0.2-0.1-1.2,1.2-1.9,2.3c-1.2-0.2-2.6-0.5-3.9-1
			c0.5-1.3,1-3.5,0.8-3.6c-0.2-0.1-1.7,1.9-2.3,3.1c-1.2-0.5-2.4-1-3.6-1.7c0.5-1.2,1.1-3.6,0.8-3.7c-0.2-0.1-1.6,1.7-2.2,2.9
			c-1.9-1.2-3.5-2.5-4.5-3.8c-0.8,6.1,19.6,15.2,22.3,9.3c0.7-1.6,1.5-3.8,2-6.1C64.8,57.8,71.2,54.8,74.7,47.1z"/>
		<g>
			<path class="st1" d="M53,20c-3.1,1.7-6.3,1.7-7.2,0.1c-0.8-1.6,1-4.2,4.1-5.9c3.1-1.7,6.3-1.7,7.2-0.1C57.9,15.7,56.1,18.3,53,20
				z"/>
			<path class="st1" d="M44.6,23.5c-0.6,1.2-2,1.7-3.2,1.2c-1.2-0.6-1.7-2-1.2-3.2c0.6-1.2,2-1.7,3.2-1.2
				C44.7,20.8,45.2,22.3,44.6,23.5z"/>
		</g>
	</g>
	<g>
		<g>
			<path class="st0" d="M17.6,29.2c1.3,3.5,14-1.2,12.7-4.7C29,21,24.8,15,20.2,16.7C15.5,18.4,16.3,25.7,17.6,29.2z"/>
			<path class="st0" d="M31.4,10.4c2.4,6.6-1.7,11.7-8.3,14.1c-6.6,2.4-13.1,1.3-15.5-5.3C5.2,12.7,6.1,3.8,14.3,0.8
				C22.4-2.2,28.9,3.9,31.4,10.4z"/>
		</g>
		<g>
			<path class="st2" d="M22.9,21.6c0.4,1.1-2.3,2.1-2.7,1c-0.4-1.1-0.3-3.6,0.1-3.7C20.8,18.7,22.4,20.5,22.9,21.6z"/>
			<path class="st2" d="M24.1,21.2c0.4,1.1-2.3,2.1-2.7,1c-0.4-1.1-0.3-3.6,0.1-3.7C22,18.3,23.7,20,24.1,21.2z"/>
		</g>
		<path class="st2" d="M11.9,20.6c1,1.7,6.5,2,5.8-4.6C17.1,11.3,9.5,16.6,11.9,20.6z"/>
		<path class="st2" d="M29,14.3c0.4,2-3.7,5.8-7.4,0.3C19,10.6,28.2,9.7,29,14.3z"/>
		<path class="st0" d="M31.4,10.4c-1.6-4.2-4.8-8.2-9.1-9.7c3.4,1.9,6,5.3,7.3,8.9c1.6,4.4,0.3,8.1-2.7,10.9
			c0.7,1.1,1.3,2.2,1.6,3.2c0.3,0.8-0.2,1.7-1.1,2.6c-0.3-0.6-0.7-1.2-0.8-1.1c-0.1,0,0,0.9,0.2,1.7c-0.6,0.4-1.2,0.8-1.9,1.2
			c-0.3-0.7-1-1.8-1.1-1.7c-0.1,0.1,0.1,1.4,0.3,2.1c-0.7,0.3-1.4,0.5-2.1,0.7c-0.3-0.7-1-1.8-1.1-1.8c-0.1,0,0,1.3,0.3,2
			c-1.2,0.3-2.3,0.4-3.3,0.3c2.1,2.7,13.7-1.8,12.4-5.1c-0.4-0.9-0.9-2.1-1.6-3.2C31.7,18.6,33,14.8,31.4,10.4z"/>
		<g>
			<path class="st1" d="M12.2,8.3c-0.6,1.9-1.8,3.2-2.8,2.9c-1-0.3-1.3-2.1-0.7-3.9c0.6-1.9,1.8-3.2,2.8-2.9
				C12.4,4.7,12.7,6.4,12.2,8.3z"/>
			<path class="st1" d="M10.3,13c0.3,0.7-0.1,1.5-0.8,1.7C8.7,15,8,14.6,7.7,13.9c-0.3-0.7,0.1-1.5,0.8-1.7
				C9.2,11.9,10,12.3,10.3,13z"/>
		</g>
	</g>
</g>
</svg>
